<svg xmlns="http://www.w3.org/2000/svg" width="42" height="40" viewBox="0 0 42 40"><g><g><path fill="#fff" d="M.946 36.355l2.799-7.997a19.34 19.34 0 0 1-2.063-8.646c-.008-5.16 2.025-10.039 5.725-13.738 3.7-3.7 8.632-5.782 13.886-5.864a20.128 20.128 0 0 1 7.942 1.478 19.886 19.886 0 0 1 6.476 4.252 19.475 19.475 0 0 1 4.33 6.36 19.158 19.158 0 0 1 1.506 7.798c-.083 5.159-2.204 10.001-5.972 13.635-3.76 3.626-8.716 5.622-13.96 5.622h-.03a20.296 20.296 0 0 1-8.806-2.025l-8.144 2.748a2.976 2.976 0 0 1-.952.157 2.91 2.91 0 0 1-2.044-.838 2.795 2.795 0 0 1-.693-2.942zm2.402 1.264c.08.079.252.198.502.114l8.63-2.912a1.23 1.23 0 0 1 .957.074 17.81 17.81 0 0 0 8.151 1.987c9.518.015 17.392-7.577 17.542-16.921.076-4.702-1.745-9.12-5.128-12.442-3.383-3.322-7.881-5.11-12.67-5.036-9.518.148-17.248 7.876-17.233 17.226a16.987 16.987 0 0 0 2.024 8.003c.156.29.183.63.074.94l-2.965 8.474a.453.453 0 0 0 .116.493zm18.222-7.966c.029.64-.577 1.187-1.209 1.187-.677 0-1.179-.544-1.208-1.187-.03-.64.576-1.187 1.208-1.187.678 0 1.18.544 1.209 1.187zm4.804-13.66c0 2.848-2.066 5.232-4.804 5.783v3.773c0 .655-.541 1.187-1.209 1.187a1.198 1.198 0 0 1-1.208-1.187v-4.84c0-.655.541-1.186 1.208-1.186 1.983 0 3.596-1.584 3.596-3.53 0-1.947-1.613-3.531-3.596-3.531-1.982 0-3.595 1.584-3.595 3.53 0 .656-.541 1.187-1.208 1.187a1.198 1.198 0 0 1-1.209-1.187c0-3.255 2.697-5.903 6.012-5.903 3.316 0 6.013 2.648 6.013 5.903z"/></g></g></svg>