<svg xmlns="http://www.w3.org/2000/svg" width="24" height="32" viewBox="0 0 24 32"><g><g><path fill="#fff" d="M11.708 13.708l-4 4a1.003 1.003 0 0 1-1.414-.002l-2-2 .759-.986 1.894 1.92 3.79-3.84zm0 8l-4 4a1.006 1.006 0 0 1-1.414 0l-2-2 .759-1.308 1.894 1.92 3.79-3.84zm7.87-6.348h-4.42v-1.28l4.473-.08zM24 6v24c0 1.102-.898 2-2 2H2c-1.102 0-2-.898-2-2V6c0-1.102 1.424-1.52 2.526-1.52h3.79V3.2c0-.552.71-.64 1.263-.64h1.895C9.888 1.396 10.696 0 12 0c1.304 0 2.112 1.396 2.526 2.56h2.527c.552 0 .631.088.631.64v1.28h5.053C23.839 4.48 24 4.898 24 6zm-16.421.4h8.842V3.84L14 4a1 1 0 0 1-1-1 1 1 0 0 0-2 0 1 1 0 0 1-1 1L7.58 3.84zm15.158-.64h-5.053v1.28c0 .552-.08.64-.631.64H7.579c-.552 0-1.263-.088-1.263-.64V5.76H1.263v24.96h21.474zm-3.158 17.28h-4.421v-1.28l4.473-.08z"/></g></g></svg>