<svg xmlns="http://www.w3.org/2000/svg" width="38" height="50" viewBox="0 0 38 50"><g><g><path fill="#fff" d="M18.538 21.419l-6.334 6.25a1.601 1.601 0 0 1-2.239-.003L6.8 24.54 7.999 23 11 26l6-6zm0 12.5l-6.334 6.25a1.602 1.602 0 0 1-2.239 0L6.8 37.044 7.999 35 11 38l6-6zM31 24h-7v-2l7.083-.125zm7-14.625v37.5C38 48.597 36.578 50 34.833 50H3.167C1.422 50 0 48.597 0 46.875v-37.5C0 7.653 2.255 7 4 7h6V5c0-.862 1.126-1 2-1h3c.655-1.819 1.935-4 4-4s3.344 2.181 4 4h4c.874 0 1 .138 1 1v2h8c1.745 0 2 .653 2 2.375zM12 10h14V6l-3.833.25c-.874 0-1.584-.7-1.584-1.562 0-.863-.71-1.563-1.583-1.563-.874 0-1.583.7-1.583 1.563 0 .862-.71 1.562-1.584 1.562L12 6zm24-1h-8v2c0 .862-.126 1-1 1H12c-.874 0-2-.138-2-1V9H2v39h34zm-5 27h-7v-2l7.083-.125z"/></g></g></svg>