<svg xmlns="http://www.w3.org/2000/svg" width="46" height="44" viewBox="0 0 46 44">
  <path d="M46 17a1 1 0 0 0 0-1 1 1 0 0 0-1 0l-6-5V6a1 1 0 0 0-1-1h-8l-6-5a1 1 0 0 0-2 0l-6 5H8a1 1 0 0 0-1 1v5l-6 5a1 1 0 0 0-1 1v26a1 1 0 0 0 0 1 1 1 0 0 0 1 0h44a1 1 0 0 0 1-1zm-7-3l4 3-4 2v-5zM23 3l3 2h-6zM9 7h28v14l-10 6-3-3a1 1 0 0 0-2 0l-3 3-10-7V7zm-2 7v5l-4-2zm-5 5l15 10L2 40V19zm2 23l19-15 19 15H4zm25-13l15-10v21zm2-17H15a1 1 0 0 0 0 2h16a1 1 0 0 0 0-2zm0 6H15a1 1 0 0 0 0 3h16a1 1 0 0 0 0-3z" fill="#fff" fill-rule="evenodd"/>
</svg>
