<svg xmlns="http://www.w3.org/2000/svg" width="47" height="45" viewBox="0 0 47 45"><g><g><path fill="#fff" d="M47 14.607c0 5.265-3.235 9.78-7.834 11.687V45H7.834V26.294C3.235 24.386 0 19.872 0 14.607c0-6.992 5.698-12.66 12.728-12.66 1.201 0 2.361.166 3.462.475A12.178 12.178 0 0 1 23.501 0c2.74 0 5.272.901 7.306 2.422a12.792 12.792 0 0 1 3.462-.475C41.3 1.947 47 7.615 47 14.607zm-11.313 26.93v-1.729h-1.744c.958 0 1.738.773 1.738 1.729zm-24.371-1.73v1.73c0-1.968 3.482-1.968 3.482 0h1.739c0-.956.78-1.73 1.743-1.73zm6.964 0c.959 0 1.739.774 1.739 1.73h1.738c0-.956.78-1.73 1.744-1.73h-5.22zm5.221 0c.959 0 1.739.774 1.739 1.73h1.738c0-.956.78-1.73 1.744-1.73h-5.22zm5.22 0c.96 0 1.74.774 1.74 1.73h1.738c0-.956.78-1.73 1.744-1.73h-5.221zm14.797-25.2c0-5.072-4.147-9.198-9.249-9.198a9.71 9.71 0 0 0-.611.02 11.995 11.995 0 0 1 2.024 6.685h-.023c0 .956-.778 1.732-1.741 1.732a1.737 1.737 0 0 1-1.724-1.959c-.122-4.667-3.971-8.425-8.693-8.425-4.8 0-8.703 3.881-8.703 8.652h-.022c0 .956-.778 1.732-1.742 1.732a1.736 1.736 0 0 1-1.713-2.02c.056-2.362.79-4.555 2.02-6.397a9.85 9.85 0 0 0-.613-.02c-5.098 0-9.248 4.126-9.248 9.198a9.177 9.177 0 0 0 5.695 8.492l2.141.888v12.358h24.371V23.987l2.139-.888a9.244 9.244 0 0 0 4.101-3.335 9.113 9.113 0 0 0 1.591-5.158zm-25.263 6.161v8.656c0 .953-.777 1.729-1.738 1.729a1.737 1.737 0 0 1-1.741-1.73V20.77v-.002c0-.955.78-1.73 1.74-1.73.961 0 1.74.774 1.74 1.73zm6.962 0v8.656c0 .953-.778 1.729-1.741 1.729a1.736 1.736 0 0 1-1.739-1.73V20.77v-.002c0-.956.78-1.73 1.739-1.73.963 0 1.74.774 1.74 1.73zm6.962 0v8.656c0 .953-.78 1.729-1.741 1.729a1.737 1.737 0 0 1-1.741-1.73V20.77v-.002c0-.955.78-1.73 1.74-1.73.962 0 1.742.774 1.742 1.73z"/></g></g></svg>