<svg version="1" xmlns="http://www.w3.org/2000/svg" viewBox="0 0 56 59">
  <path d="M28 26l-1 1s3 10 2 31l1 1 1-1c1-21-2-31-2-31l-1-1zm25-10C47 3 31-4 18 2h-1l-5 3v1h1l5-2a25 25 0 0 1 33 13c2 4 3 11 3 15l1 1 1-1c-1-5-1-12-3-16zM9 10l1-1-1-1H8C2 14-3 23 2 40l1 1 1-1C0 27 2 17 9 10zm20-4l-9 2C10 13 5 23 8 33v3l1 14 1 1 1-1-1-14-1-4c-3-9 2-19 11-23l9-1c7 0 15 7 17 14 2 6 2 16 2 26l1 1 1-1c0-10 0-20-2-27-3-8-11-15-19-15zm-1 6h-3l-1 1v1h1c6-1 13 2 15 8s3 15 2 31l1 1 1-1c1-17 0-26-2-32-2-5-8-9-14-9zm-8 4l1-1-1-1-1 1c-5 3-7 10-5 17l2 19 1 1 1-1c0-12-2-19-2-20-2-5 0-12 4-15zm18 32l-1-1-1 1v8l1 1 1-1v-8zM28 19c-4 0-8 3-9 8l1 3 2 26 1 1 1-1-2-27c-1-3 1-6 4-7l2-1 5 4c2 4 3 12 3 18l1 1 1-1c0-6-1-14-3-19-1-2-4-4-7-5z"/>
</svg>
