<svg xmlns="http://www.w3.org/2000/svg" width="512" height="512" viewBox="0 0 512 512">
  <path data-name="Forma 1" d="M372 427l-6-9a10 10 0 1 0 11 17zM149 80a10 10 0 0 0-14-3 10 10 0 1 0 11 17 10 10 0 0 0 3-14zm363 176A256 256 0 0 0 106 49a10 10 0 1 0 12 16 235 235 0 0 1 138-45c130 0 236 106 236 236a234 234 0 0 1-62 160l-14-15A216 216 0 0 0 161 62a10 10 0 1 0 8 18 196 196 0 0 1 232 307L298 283a82 82 0 0 0 55-77v-72a10 10 0 0 0-20 0v31H179v-21h94a10 10 0 0 0 0-20H169a10 10 0 0 0-10 10v11L52 38a10 10 0 1 0-14 14l30 30a256 256 0 0 0 338 381 10 10 0 1 0-12-16 235 235 0 0 1-138 45A236 236 0 0 1 20 256 234 234 0 0 1 82 96l14 15a216 216 0 0 0 255 339 10 10 0 1 0-8-18 196 196 0 0 1-232-307l48 48v35a82 82 0 0 0 72 79v81h-22a10 10 0 0 0 0 20h93a10 10 0 0 0 0-20h-22v-73l143 142 37 38a10 10 0 0 0 15-15l-31-30a256 256 0 0 0 68-174zm-252 22v90h-9v-90a10 10 0 0 0-10-10c-33 0-61-27-62-60v-15l82 82a10 10 0 0 0-1 3zm-61-93h134v21a62 62 0 0 1-52 61zm103-61a10 10 0 0 0 0 20 10 10 0 0 0 0-20z" fill-rule="evenodd"/>
</svg>
