<svg xmlns="http://www.w3.org/2000/svg" width="52" height="83" viewBox="0 0 52 83"><g><g><path fill="#fff" d="M51.672 60.708l-.86 20.391a1.39 1.39 0 0 1-1.442 1.333 1.39 1.39 0 0 1-1.325-1.45l.859-20.392a6.848 6.848 0 0 0-.981-3.81l-3.882 4.686a8.238 8.238 0 0 0-1.887 5.244v14.33c0 .77-.62 1.394-1.386 1.394a1.39 1.39 0 0 1-1.384-1.394V66.71c0-2.563.898-5.06 2.529-7.028l4.107-4.96a6.66 6.66 0 0 0-1.178-.673l-6.246-2.743-4.406 7.196a2.742 2.742 0 0 1-2.339 1.314c-.648 0-1.28-.232-1.781-.662l-2.887-2.478V81.04c0 .77-.62 1.394-1.385 1.394a1.39 1.39 0 0 1-1.385-1.394V56.676l-2.886 2.479a2.732 2.732 0 0 1-4.12-.653L13 51.306 6.755 54.05c-.42.185-.812.414-1.179.674l4.108 4.959a11.04 11.04 0 0 1 2.529 7.028v14.33c0 .77-.62 1.394-1.385 1.394a1.39 1.39 0 0 1-1.385-1.394V66.71c0-1.912-.67-3.775-1.887-5.244L3.674 56.78a6.845 6.845 0 0 0-.982 3.811l.86 20.391a1.39 1.39 0 0 1-1.386 1.453 1.389 1.389 0 0 1-1.382-1.335l-.859-20.39c-.166-3.936 2.133-7.638 5.721-9.214l7.115-3.125.956-.961c-4.91-1.54-8.533-3.349-8.703-3.435a1.401 1.401 0 0 1-.62-1.87c.023-.047 2.546-5.358 2.546-16.98v-5.416C6.94 9.233 15.41.71 25.822.71s18.882 8.522 18.882 18.997v5.416c0 11.723 2.52 16.93 2.546 16.98.164.331.191.714.075 1.065-.116.35-.366.64-.695.805-.172.087-3.812 1.905-8.74 3.446l.945.95 7.115 3.125c3.588 1.576 5.887 5.278 5.722 9.213zM9.71 22.594c.188-.064.38-.118.58-.153a4.07 4.07 0 0 1 3.407.95c.58-.5 1.085-1.091 1.508-1.763a1.38 1.38 0 0 1 1.911-.43c.647.411.838 1.272.429 1.922a10.495 10.495 0 0 1-2.809 2.985 1.957 1.957 0 0 1-1.692.273 1.962 1.962 0 0 1-.992-.698 1.3 1.3 0 0 0-1.282-.494c-.594.105-1.06.733-1.06 1.43v1.04c0 .693.432 1.319 1.004 1.455.132.031.265.043.392.033 1.354-.1 2.607.89 2.856 2.253 1.052 5.758 6.04 9.938 11.86 9.938 4.773 0 9.104-2.842 11.034-7.24.555-1.263.866-2.668.902-4.062.09-3.517-2.531-4.453-7.991-6.074-4.387-1.303-9.847-2.925-14.332-7.315a1.4 1.4 0 0 1-.027-1.97 1.379 1.379 0 0 1 1.958-.027c3.995 3.909 8.877 5.36 13.185 6.639 5.206 1.546 10.124 3.007 9.976 8.818a13.715 13.715 0 0 1-1.137 5.116 14.9 14.9 0 0 1-5.402 6.43v2.397c.359.007.702.152.955.407l.72.724a64.05 64.05 0 0 0 8.574-3.153c-.824-2.33-2.303-7.781-2.303-16.9v-5.417c0-8.938-7.228-16.21-16.112-16.21-8.884 0-16.112 7.272-16.112 16.21zm6.235 22.573l.708-.712c.264-.266.61-.401.956-.408v-2.426a14.898 14.898 0 0 1-6.366-9.693 4.025 4.025 0 0 1-1.167-.105 3.721 3.721 0 0 1-.638-.216c-.466 5.303-1.425 8.704-2.03 10.417a64.222 64.222 0 0 0 8.537 3.143zm7.814 8.407l-6.126-6.164-2.33 2.344 4.447 7.262zm7.459-7.342v-3.137a14.705 14.705 0 0 1-10.84-.016v3.153l5.42 5.453zm5.076 3.522l-2.33-2.344-6.126 6.164 4.009 3.442zM21.739 67.348c0 .77-.62 1.393-1.384 1.393h-4.083a1.39 1.39 0 0 1-1.385-1.393c0-.77.62-1.394 1.385-1.394h4.083a1.39 1.39 0 0 1 1.384 1.394z"/></g></g></svg>