<svg xmlns="http://www.w3.org/2000/svg" width="22.69" height="24" viewBox="0 0 22.69 24">
  <metadata><?xpacket begin="﻿" id="W5M0MpCehiHzreSzNTczkc9d"?>
<x:xmpmeta xmlns:x="adobe:ns:meta/" x:xmptk="Adobe XMP Core 5.6-c142 79.160924, 2017/07/13-01:06:39        ">
   <rdf:RDF xmlns:rdf="http://www.w3.org/1999/02/22-rdf-syntax-ns#">
      <rdf:Description rdf:about=""/>
   </rdf:RDF>
</x:xmpmeta>
                                                                                                    
                                                                                                    
                                                                                                    
                                                                                                    
                                                                                                    
                                                                                                    
                                                                                                    
                                                                                                    
                                                                                                    
                                                                                                    
                                                                                                    
                                                                                                    
                                                                                                    
                                                                                                    
                                                                                                    
                                                                                                    
                                                                                                    
                                                                                                    
                                                                                                    
                                                                                                    
                           
<?xpacket end="w"?></metadata>
<defs>
    <style>
      .cls-1 {
        fill: #fff;
        fill-rule: evenodd;
      }
    </style>
  </defs>
  <path id="Forma_1" data-name="Forma 1" class="cls-1" d="M1638.66,666.616a4.723,4.723,0,0,0-.79-0.762,8.5,8.5,0,0,1-.2,2.308,9.41,9.41,0,0,1-3.29,5.472,9.529,9.529,0,0,1-6.06,2.067h-3.33l-1.08,5.043a2.169,2.169,0,0,1-2.11,1.708h-1.5l-0.27,1.239a1.059,1.059,0,0,0,.21.907,1.082,1.082,0,0,0,.84.4h3.67a1.087,1.087,0,0,0,1.06-.854l1.26-5.9h4.21a8.487,8.487,0,0,0,5.38-1.827,8.383,8.383,0,0,0,2.91-4.859A5.653,5.653,0,0,0,1638.66,666.616Zm-15.8,13.9,1.26-5.9h4.2a8.229,8.229,0,0,0,8.29-6.686,5.622,5.622,0,0,0-.91-4.947,5.774,5.774,0,0,0-4.43-1.989h-9.17a1.085,1.085,0,0,0-1.06.849l-3.97,18.215a1.074,1.074,0,0,0,1.06,1.309h3.67A1.087,1.087,0,0,0,1622.86,680.519Zm3.36-15.37h2.88a2.074,2.074,0,0,1,1.67.779,2.283,2.283,0,0,1,.32,1.994,0.033,0.033,0,0,1-.01.028,3.686,3.686,0,0,1-3.36,2.772h-2.76Z" transform="translate(-1617.06 -661)"/>
</svg>
