<svg width="32" height="25" viewBox="0 0 32 25" fill="none" xmlns="http://www.w3.org/2000/svg">
<path d="M28.5133 0H3.48735C1.56441 0 0.00012207 1.6236 0.00012207 3.61954V21.3809C0.00012207 23.3764 1.56441 25 3.48735 25H28.5133C30.4358 25 32.0001 23.3764 32.0001 21.3809V3.61954C32.0005 1.6236 30.4362 0 28.5133 0ZM1.99393 6H30.0067V8H2L1.99393 6ZM1.99393 3.61954C1.99393 2.76489 2.66373 2.06993 3.48735 2.06993H28.5133C29.3365 2.06993 30.0067 2.76489 30.0067 3.61954V4H1.99393V3.61954ZM28.5133 22.9305H3.48735C2.66373 22.9305 1.99393 22.2351 1.99393 21.3809V9.95747H30.0067V21.3809C30.0067 22.2351 29.3365 22.9305 28.5133 22.9305Z" fill="#CDCDCD"/>
<path fill-rule="evenodd" clip-rule="evenodd" d="M5 14C5 13.4477 5.44772 13 6 13H11C11.5523 13 12 13.4477 12 14V19C12 19.5523 11.5523 20 11 20H6C5.44772 20 5 19.5523 5 19V14ZM7 15V18H10V15H7ZM19.5 15C18.6716 15 18 15.6716 18 16.5C18 17.3284 18.6716 18 19.5 18C19.774 18 20.0292 17.9273 20.2493 17.7999C20.0885 17.398 20 16.9593 20 16.5C20 16.0406 20.0885 15.602 20.2494 15.2001C20.029 15.0726 19.7736 15 19.5 15ZM21.4999 13.6274C20.9331 13.2323 20.2429 13 19.5 13C17.567 13 16 14.567 16 16.5C16 18.433 17.567 20 19.5 20C20.2423 20 20.9329 19.7679 21.4999 19.3726C22.0669 19.7681 22.7563 20 23.5 20C25.433 20 27 18.433 27 16.5C27 14.567 25.433 13 23.5 13C22.7563 13 22.0668 13.2319 21.4999 13.6274ZM23.5 15C22.6716 15 22 15.6716 22 16.5C22 17.3284 22.6716 18 23.5 18C24.3284 18 25 17.3284 25 16.5C25 15.6716 24.3284 15 23.5 15Z" fill="#CDCDCD"/>
</svg>
