<svg xmlns="http://www.w3.org/2000/svg" width="36" height="52" viewBox="0 0 36 52">
  <metadata><?xpacket begin="﻿" id="W5M0MpCehiHzreSzNTczkc9d"?>
<x:xmpmeta xmlns:x="adobe:ns:meta/" x:xmptk="Adobe XMP Core 5.6-c142 79.160924, 2017/07/13-01:06:39        ">
   <rdf:RDF xmlns:rdf="http://www.w3.org/1999/02/22-rdf-syntax-ns#">
      <rdf:Description rdf:about=""/>
   </rdf:RDF>
</x:xmpmeta>
                                                                                                    
                                                                                                    
                                                                                                    
                                                                                                    
                                                                                                    
                                                                                                    
                                                                                                    
                                                                                                    
                                                                                                    
                                                                                                    
                                                                                                    
                                                                                                    
                                                                                                    
                                                                                                    
                                                                                                    
                                                                                                    
                                                                                                    
                                                                                                    
                                                                                                    
                                                                                                    
                           
<?xpacket end="w"?></metadata>
<defs>
    <style>
      .cls-1 {
        fill: #fff;
        fill-rule: evenodd;
      }
    </style>
  </defs>
  <path id="Forma_1" data-name="Forma 1" class="cls-1" d="M1262.86,279h13.39a9.811,9.811,0,0,0,9.75-9.854v-2.279h7.71a4.314,4.314,0,0,0,4.29-4.334v-31.2a4.314,4.314,0,0,0-4.29-4.333h-17.14a4.312,4.312,0,0,0-4.28,4.333V239.7l-8.22,10.389a9.6,9.6,0,0,0-2.07,5.958v22.09A0.86,0.86,0,0,0,1262.86,279Zm20.57-50.267h10.28a2.6,2.6,0,0,1,2.58,2.6v31.2a2.594,2.594,0,0,1-2.58,2.6h-10.28V256l3.1-3.7a4.045,4.045,0,0,0-.23-5.427l-0.09-.085a3.863,3.863,0,0,0-2.78-1.085V228.733Zm-4.29,0h2.57v17.4a4.034,4.034,0,0,0-1.1.832l-1.47,1.577V228.733Zm-5.14,2.6a2.587,2.587,0,0,1,2.57-2.6h0.86v21.648l-3.43,3.683V231.333Zm-10.28,24.709a7.769,7.769,0,0,1,1.69-4.875l6.88-8.694v13.433l-3.2,3.433,1.25,1.188,11.52-12.376a2.215,2.215,0,0,1,1.57-.712,2.251,2.251,0,0,1,1.61.621,2.3,2.3,0,0,1,.17,3.125l-7.58,9.054a0.879,0.879,0,0,0-.2.561v3a9.854,9.854,0,0,1-6.3,9.19l0.6,1.623a11.555,11.555,0,0,0,7-7.745h5.56v2.279a8.092,8.092,0,0,1-8.04,8.121h-12.53V256.042Zm17.99,2.005v7.086h-2.64a11.8,11.8,0,0,0,.07-1.334v-2.682Zm5.15-1.58v5.2a0.857,0.857,0,0,0,.85.866h5.15a0.857,0.857,0,0,0,.85-0.866v-5.2a0.858,0.858,0,0,0-.85-0.867h-5.15A0.858,0.858,0,0,0,1286.86,256.467Zm1.71,0.866H1292V260.8h-3.43v-3.467Zm0.86-26h-1.72v6.934h1.72v-6.934Zm4.28,0H1292V242.6h1.71V231.333Z" transform="translate(-1262 -227)"/>
</svg>
