<svg xmlns="http://www.w3.org/2000/svg" width="22" height="22" viewBox="0 0 22 22"><g><g><path fill="#545e6a" d="M22 6.718v8.063A6.72 6.72 0 0 1 15.28 21.5H7.22a6.72 6.72 0 0 1-6.72-6.718V6.718A6.719 6.719 0 0 1 7.22-.001h8.062A6.719 6.719 0 0 1 22 6.718zm-2.016 0a4.709 4.709 0 0 0-4.703-4.703H7.22a4.709 4.709 0 0 0-4.703 4.703v8.063a4.708 4.708 0 0 0 4.703 4.703h8.062a4.709 4.709 0 0 0 4.703-4.703zm-3.36 4.032a5.375 5.375 0 1 1-10.75-.001 5.375 5.375 0 0 1 10.75.001zm-2.015 0a3.363 3.363 0 0 0-3.36-3.36 3.363 3.363 0 0 0-3.358 3.36 3.364 3.364 0 0 0 3.359 3.359 3.364 3.364 0 0 0 3.36-3.359zm2.42-6.494a.716.716 0 1 1 0 1.432.716.716 0 0 1 0-1.432z"/></g></g></svg>