<svg xmlns="http://www.w3.org/2000/svg" width="50" height="26" viewBox="0 0 50 26">
    <g>
        <g>
            <path fill="#fff"
                  d="M38.568.769a9.77 9.77 0 0 0-.841-.032C37.634.726 27.929 0 24.043 13.067 20.647 24.49 12.778 23.98 12.363 23.95c-.156 0-.312-.004-.469-.011C6.347 23.688 2 19.043 2 13.364 2 7.526 6.648 2.776 12.362 2.776c3.542 0 6.803 1.82 8.723 4.869l1.681-1.106C20.477 2.903 16.588.733 12.362.733 5.546.733 0 6.399 0 13.363c0 6.776 5.185 12.318 11.805 12.618.184.008.369.012.468.009.01.001.127.01.332.01 1.745 0 9.874-.647 13.352-12.34C29.353 2.237 37.224 2.746 37.637 2.776c.263 0 .525.01.783.03 5.372.41 9.58 5.046 9.58 10.558C48 19.2 43.352 23.95 37.638 23.95c-3.542 0-6.802-1.82-8.722-4.869l-1.682 1.106c2.29 3.636 6.178 5.806 10.404 5.806 6.816 0 12.362-5.666 12.362-12.63C50 6.789 44.978 1.256 38.568.769z"/>
        </g>
    </g>
</svg>