<svg xmlns="http://www.w3.org/2000/svg" width="58" height="83" viewBox="0 0 58 83"><g><g><path fill="#fff" d="M22.464 61.916c0 .666-.54 1.205-1.207 1.205h-5.16a1.206 1.206 0 1 1 0-2.41h5.16c.666 0 1.207.54 1.207 1.205zm34.823-7.26L56.22 81.277a1.206 1.206 0 0 1-1.254 1.156 1.206 1.206 0 0 1-1.158-1.252l1.068-26.621a6.499 6.499 0 0 0-.308-2.257l-4.39 4.38a6.472 6.472 0 0 0-1.913 4.611V81.23c0 .665-.54 1.205-1.207 1.205-.666 0-1.206-.54-1.206-1.205V61.294c0-2.385.93-4.628 2.62-6.314l4.881-4.872a6.524 6.524 0 0 0-2.654-1.893l-7.096-2.732-5.404 8.091a3.775 3.775 0 0 1-3.156 1.683 3.77 3.77 0 0 1-2.128-.656l1.16 26.575a1.206 1.206 0 0 1-1.207 1.257 1.206 1.206 0 0 1-1.205-1.152L30.59 56.724h-3.185L26.333 81.28a1.206 1.206 0 0 1-1.258 1.151 1.205 1.205 0 0 1-1.153-1.256L25.08 54.6a3.773 3.773 0 0 1-2.506.638 3.774 3.774 0 0 1-2.778-1.664l-5.404-8.09-7.096 2.731a6.52 6.52 0 0 0-2.654 1.893l4.88 4.871a8.862 8.862 0 0 1 2.621 6.315v19.935c0 .665-.54 1.205-1.207 1.205-.666 0-1.206-.54-1.206-1.205V61.294c0-1.742-.68-3.38-1.914-4.61l-4.39-4.381a6.498 6.498 0 0 0-.307 2.257l1.068 26.62a1.206 1.206 0 0 1-1.207 1.254 1.206 1.206 0 0 1-1.205-1.157L.708 54.656a8.927 8.927 0 0 1 5.72-8.689l7.542-2.904 3.854-3.846c.256-.255.6-.372.936-.35v-3.28a14.008 14.008 0 0 1-3.623-7.122c-.006-.024-.047-.064-.074-.075a3.76 3.76 0 0 1-1.014-.069c-1.755-.358-3.029-1.986-3.029-3.87v-.99c0-1.606.922-3 2.283-3.596a34.037 34.037 0 0 1-.993-8.121c0-6.31 4.546-7.41 6.082-7.602 1.094-.91 4.775-3.59 10.54-3.901 6.14-.331 10.967 1.315 13.956 4.76C46 8.586 46.981 13.965 45.74 20.573a3.948 3.948 0 0 1 1.234 2.874v1.003c0 1.885-1.274 3.513-3.029 3.871a3.776 3.776 0 0 1-1.014.069c-.028.01-.068.052-.075.076-.507 2.757-1.8 5.2-3.622 7.12v3.282c.337-.023.68.094.936.35l3.854 3.846 7.542 2.903a8.93 8.93 0 0 1 5.721 8.69zm-28.29-17.08c5.636 0 10.467-4.015 11.485-9.546.227-1.237 1.376-2.135 2.61-2.044.12.008.244 0 .368-.025.627-.128 1.1-.778 1.1-1.511v-1.004c0-.705-.48-1.333-1.117-1.46-.205-.04-.661-.027-1.105.077a2.096 2.096 0 0 1-2.42-1.239l-1.057-2.53c-3.425.7-14.376 2.297-19.842-4.494a1.203 1.203 0 0 1 .186-1.694 1.209 1.209 0 0 1 1.696.185c5.41 6.722 18.25 3.471 18.378 3.437a1.209 1.209 0 0 1 1.42.703l1.348 3.232a5.74 5.74 0 0 1 1.42-.096c.948-5.598.124-10.075-2.404-12.989-2.483-2.862-6.633-4.22-12.002-3.931-5.924.32-9.3 3.496-9.333 3.528a1.208 1.208 0 0 1-.836.336c-.42.006-4.168.207-4.168 5.233 0 3.65.674 6.63 1.023 7.93a3.778 3.778 0 0 1 1.626.88 7.565 7.565 0 0 0 1.55-1.77 1.209 1.209 0 0 1 1.665-.372c.563.356.73 1.1.373 1.662a9.885 9.885 0 0 1-2.66 2.804 1.767 1.767 0 0 1-1.516.243 1.763 1.763 0 0 1-.89-.622 1.37 1.37 0 0 0-1.346-.515c-.636.111-1.115.747-1.115 1.478v.988c0 .734.472 1.383 1.099 1.511.124.025.247.034.368.025 1.237-.09 2.383.807 2.61 2.044 1.018 5.531 5.848 9.547 11.485 9.547zM27.23 49.14l-8.5-7.422-2.371 2.367 5.445 8.153c.23.342.597.562 1.008.603.411.04.814-.103 1.106-.395zm3.254 5.175l-.093-2.138-1.395-1.392-1.395 1.392-.093 2.138zm6.335-13.666v-3.031a14.075 14.075 0 0 1-7.823 2.368c-2.873 0-5.57-.867-7.823-2.368v3.031l7.823 6.832zm4.814 3.436l-2.372-2.367-8.5 7.422 3.313 3.306c.292.292.695.436 1.106.395.411-.04.778-.26 1.007-.603z"/></g></g></svg>