<svg xmlns="http://www.w3.org/2000/svg" width="200" height="166" viewBox="0 0 200 166">
  <path data-name="Forma 1" d="M59.4 2a16.244 16.244 0 0 1 16.337 16.153 16.337 16.337 0 0 1-32.672 0A16.245 16.245 0 0 1 59.4 2zm52.54 4.8a6.966 6.966 0 0 0-9.776 0L69.015 39.57a16.884 16.884 0 0 0-20.072 1.306L14.476 6.8a6.969 6.969 0 0 0-9.776 0 6.787 6.787 0 0 0 0 9.668l36.324 35.915a6.939 6.939 0 0 0 2.041 1.374v38.794a16.448 16.448 0 0 0 .206 2.47 6.748 6.748 0 0 0-.2 1.58v60.556a6.915 6.915 0 0 0 13.83 0v-48.276a16.129 16.129 0 0 0 5.931 0v48.276a6.915 6.915 0 0 0 13.83 0V96.6a6.9 6.9 0 0 0-.207-1.6 16.6 16.6 0 0 0 .2-2.453V53.474a16.425 16.425 0 0 0-.131-1.986l35.415-35.024a6.777 6.777 0 0 0 .002-9.664z" stroke="#2ccda4" fill="none" stroke-linejoin="round" stroke-width="2"/>
  <path data-name="Forma 1" d="M167.023 21.125a9.7 9.7 0 1 1-9.787 9.7 9.741 9.741 0 0 1 9.787-9.7zm30.2 62.151c-2.76-30.719-17.539-36.847-17.539-36.847a27.558 27.558 0 0 0-29.318 2.328c-9.747 8.789-12 22.2-13.538 35.163-.78 6.584 9.618 6.507 10.39 0 .92-7.733 2.233-15.5 6.108-22.118l-.019 7.466-.071 35.877v28.463a5.387 5.387 0 0 0 5.444 5.543 5.655 5.655 0 0 0 5.756-5.543V92.923h5.088v40.816c0 6.636 10.389 6.636 10.389 0v-28.595l.439-35.944c0-3.431.008-6.5.008-8.629 4.152 6.738 5.522 14.741 6.468 22.707.777 6.505 11.172 6.582 10.393-.002z" stroke="#394450" fill="none" stroke-linejoin="round" stroke-width="2"/>
</svg>
