<svg xmlns="http://www.w3.org/2000/svg" width="20" height="17" viewBox="0 0 20 17"><g><g><path fill="#545e6a" d="M17.953 2.915L20 2.498s-1.715 1.976-2.047 2.082c-.003.001-.007-.003-.01-.003-.044.964.01 1.252.01 1.252-1.107 4.856-3.052 7.732-5.272 9.358-5.633 4.124-13.038.222-13.038.222 5.238.14 5.705-2.083 5.705-2.083-3.068-.475-3.66-2.498-3.66-2.498 1.043.484 1.627-.418 1.627-.418C.005 9.537.47 6.246.47 6.246c.553.518 1.457.714 1.996.79C2.09 6.589-1 2.796.875.83c0 0 2.257 4.158 8.235 4.556l.399-.102a4.495 4.495 0 0 1-.095-.914c0-2.414 1.912-4.372 4.27-4.372 2.842 0 3.456 1.666 3.456 1.666l2.033-1.25s-.223 2.087-1.22 2.5z"/></g></g></svg>