<svg xmlns="http://www.w3.org/2000/svg" width="29" height="16" viewBox="0 0 29 16"><g><g><path fill="#545e6a" d="M24.809 10.121c.948.911 1.95 1.769 2.801 2.772.376.444.732.904 1.004 1.421.386.736.037 1.546-.634 1.59l-4.167-.003c-1.075.088-1.933-.338-2.654-1.06-.577-.578-1.11-1.194-1.666-1.79a3.94 3.94 0 0 0-.75-.656c-.569-.364-1.062-.253-1.387.332-.332.592-.407 1.25-.44 1.911-.044.966-.34 1.22-1.326 1.263-2.107.097-4.106-.216-5.964-1.261-1.637-.92-2.907-2.222-4.012-3.694-2.152-2.868-3.8-6.018-5.28-9.257C0 .961.243.569 1.061.554a119.57 119.57 0 0 1 4.08-.001c.553.007.919.32 1.132.832.736 1.779 1.636 3.47 2.766 5.04.3.418.607.835 1.044 1.128.483.326.851.219 1.079-.311.144-.335.207-.698.24-1.056.107-1.238.121-2.472-.067-3.705-.117-.769-.557-1.267-1.338-1.412C9.6.994 9.66.848 9.852.624 10.187.238 10.502 0 11.13 0h4.71c.742.142.906.47 1.008 1.205l.004 5.144c-.008.283.144 1.127.664 1.316.417.133.691-.195.94-.454 1.129-1.177 1.933-2.569 2.652-4.01.32-.632.594-1.29.86-1.947.197-.488.506-.727 1.065-.716l4.532.003c.135 0 .27.002.4.024.765.128.974.45.738 1.185-.372 1.15-1.095 2.109-1.802 3.073-.756 1.029-1.564 2.022-2.314 3.056-.689.945-.634 1.421.222 2.242z"/></g></g></svg>